<?xml version="1.0" encoding="UTF-8" standalone="no"?>
<!-- Created with Inkscape (http://www.inkscape.org/) -->

<svg
   xmlns:dc="http://purl.org/dc/elements/1.1/"
   xmlns:cc="http://creativecommons.org/ns#"
   xmlns:rdf="http://www.w3.org/1999/02/22-rdf-syntax-ns#"
   xmlns:svg="http://www.w3.org/2000/svg"
   xmlns="http://www.w3.org/2000/svg"
   xmlns:sodipodi="http://sodipodi.sourceforge.net/DTD/sodipodi-0.dtd"
   xmlns:inkscape="http://www.inkscape.org/namespaces/inkscape"
   width="64px"
   height="64px"
   id="svg2985"
   version="1.1"
   inkscape:version="0.48.2 r9819"
   sodipodi:docname="gorge.png">
  <defs
     id="defs2987" />
  <sodipodi:namedview
     id="base"
     pagecolor="#ffffff"
     bordercolor="#666666"
     borderopacity="1.0"
     inkscape:pageopacity="0.0"
     inkscape:pageshadow="2"
     inkscape:zoom="5.5"
     inkscape:cx="-1"
     inkscape:cy="32"
     inkscape:current-layer="layer1"
     showgrid="true"
     inkscape:document-units="px"
     inkscape:grid-bbox="true"
     inkscape:window-width="1267"
     inkscape:window-height="831"
     inkscape:window-x="60"
     inkscape:window-y="60"
     inkscape:window-maximized="0">
    <inkscape:grid
       type="xygrid"
       id="grid2993" />
  </sodipodi:namedview>
  <metadata
     id="metadata2990">
    <rdf:RDF>
      <cc:Work
         rdf:about="">
        <dc:format>image/svg+xml</dc:format>
        <dc:type
           rdf:resource="http://purl.org/dc/dcmitype/StillImage" />
        <dc:title></dc:title>
      </cc:Work>
    </rdf:RDF>
  </metadata>
  <g
     inkscape:groupmode="layer"
     id="layer2"
     inkscape:label="bg">
    <rect
       style="fill:#b3b3b3"
       id="rect3780"
       width="65"
       height="65"
       x="0"
       y="-1" />
  </g>
  <g
     id="layer1"
     inkscape:label="Layer 1"
     inkscape:groupmode="layer">
    <path
       style="fill:#ff0000"
       id="path3796"
       d="m 9.9266611,50.97781 c 1.0400629,-0.697909 2.1562839,-1.277623 3.2622559,-1.864529 0.204745,-0.108652 0.815503,-0.440773 0.615173,-0.324182 -0.463084,0.269514 -0.909967,0.575098 -1.403738,0.783125 -0.277982,0.117114 0.499531,-0.338271 0.749296,-0.507407 1.810886,-1.238106 3.480565,-2.658022 5.12858,-4.100773 1.511955,-1.307522 2.893701,-2.754235 4.151974,-4.305198 1.116523,-1.393074 1.941855,-2.994006 2.658109,-4.622244 0.709753,-1.513104 1.137353,-3.123115 1.445424,-4.758661 0.217348,-1.233242 0.269122,-2.486125 0.07506,-3.723195 C 26.386365,26.493421 25.760412,25.638501 25.0721,24.831745 23.993552,23.800102 22.604926,23.180709 21.320364,22.449316 20.111785,21.748417 18.968814,20.946592 17.838319,20.127914 16.90664,19.456389 15.853682,18.96772 14.779749,18.571073 13.764045,18.225426 12.720614,17.966616 11.70056,17.634486 11.086776,17.448479 10.507989,17.163132 9.9809167,16.798732 9.1962606,16.232358 9.0597853,15.919449 8.7862058,15.008233 8.4661964,13.858535 8.3997805,12.656976 8.380812,11.469419 8.4212791,10.435798 8.6411035,9.4219285 9.1989025,8.5384448 9.3093553,8.3635015 9.4412485,8.203052 9.5624215,8.0353555 9.9909141,7.5582753 10.432708,7.0490186 10.994617,6.7211327 c 2.525269,-1.473549 1.629366,-1.187749 2.905142,-1.5521597 0.85398,-0.2481815 1.751441,-0.2501828 2.633197,-0.2731949 1.559184,-0.00953 3.087784,0.2913326 4.623467,0.5150473 2.3308,0.3870417 4.56821,1.1867876 6.773227,2.0136537 1.985277,0.7707708 3.947278,1.6235587 5.794532,2.6892669 0.361989,0.208837 0.713733,0.43495 1.070599,0.652425 2.004327,1.165516 3.816776,2.623086 5.460389,4.251329 1.255395,1.240442 2.331511,2.632743 3.301747,4.102011 0.583908,0.985738 1.003828,1.931221 1.239714,3.052484 0.260451,1.415259 -0.04531,2.231063 -0.721375,3.460229 -1.153986,1.726624 -2.80415,3.033496 -4.397249,4.333886 -1.052423,0.895332 -2.185691,1.689776 -3.251779,2.567469 -0.289678,0.238487 -0.832185,0.721099 -1.122605,0.977345 -0.578279,0.525165 -1.171188,1.072417 -1.606852,1.728316 -0.219308,0.330171 -0.282005,0.507996 -0.444618,0.867904 -0.343485,0.882684 -0.415225,1.835587 -0.533263,2.76732 -0.06386,0.71595 -0.145681,1.446256 -0.02541,2.162119 0.02613,0.155499 0.0788,0.305355 0.118198,0.458032 0.292047,1.003616 0.7039,1.962166 1.148181,2.906041 0.398147,0.856604 0.75748,1.729463 1.132178,2.596075 0.294658,0.60293 0.502224,1.255129 0.828462,1.842836 0.16311,0.293836 0.366792,0.563245 0.548776,0.845781 0.388013,0.616351 0.859028,1.125304 1.508169,1.461504 0.659509,0.27984 1.370643,0.280344 2.065938,0.171099 1.175981,-0.159518 2.328273,-0.403422 3.459097,-0.763239 1.011833,-0.344283 2.041188,-0.634725 3.097216,-0.802901 0.597075,-0.102833 1.205105,-0.08987 1.806066,-0.14008 0.327999,-0.02741 0.6533,-0.08095 0.980344,-0.118045 0.546552,-0.09456 1.106976,-0.133463 1.63977,-0.298537 0.806106,-0.249752 2.88662,-1.510145 -0.89462,0.58943 0.867213,-0.558763 1.360289,-1.260362 1.918711,-2.098671 0.695821,-1.09576 1.141477,-2.313763 1.641358,-3.504248 0.645079,-1.548131 1.234448,-3.114909 1.780975,-4.700144 0.450896,-1.283431 0.685342,-2.618476 0.864755,-3.961637 0.03089,-0.824049 0.148054,-1.65057 0.08619,-2.47462 -0.06722,-0.323324 -0.04468,-0.688787 -0.202701,-0.990169 -0.117616,-0.224325 -0.365191,-0.453677 -0.553133,-0.616292 -0.976675,-0.682357 -2.242141,-0.740754 -3.39303,-0.794628 -1.695676,-0.05998 -3.329264,0.172384 -4.951237,0.65373 -0.239363,0.09802 -0.483005,0.186183 -0.718088,0.294065 -0.249001,0.114269 -0.49247,0.240644 -0.732979,0.371845 -0.252847,0.13793 -1.001278,0.569456 -0.746459,0.435205 0.443419,-0.233615 0.852237,-0.535216 1.312561,-0.733455 0.287091,-0.123636 -0.526987,0.33635 -0.788402,0.507725 -0.253273,0.166038 -0.503739,0.33632 -0.755608,0.504479 -1.479624,1.048657 -2.875,2.21272 -4.187115,3.46341 -1.527271,1.534553 -2.820899,3.280343 -4.015983,5.079901 -1.056074,1.698076 -1.908449,3.510857 -2.852574,5.271389 -0.647953,1.180256 -1.095208,2.45191 -1.583915,3.702122 -0.397729,0.99326 -1.07922,1.61826 -1.950939,2.195143 -0.244267,0.141424 -2.109674,1.349717 -3.075872,1.718215 -0.670973,0.255903 -1.391771,0.420509 -2.086839,0.5949 -1.098834,0.229343 -2.214316,0.450661 -3.338826,0.48522 -1.419139,0.01458 -2.833942,-0.08105 -4.249918,-0.15848 -1.43008,-0.128253 -2.837956,-0.41282 -4.234317,-0.738232 -1.032395,-0.301555 -2.06982,-0.612981 -2.970726,-1.213783 C 9.6316365,52.676366 9.1039267,52.074724 8.6146913,51.432437 8.1590937,50.905767 7.6873026,50.401866 7.3621189,49.779443 7.1177455,49.311697 7.0855827,49.162406 6.9116926,48.666045 6.8433861,48.477313 6.7821634,48.285864 6.7067731,48.099848 6.566305,47.753261 6.3908502,47.421579 6.2495929,47.075313 6.0357106,46.55102 5.9031558,46.039138 5.7964574,45.484545 5.5973519,44.077049 5.9183534,42.9878 6.4886889,41.716625 c 0.6875464,-1.371309 1.5434189,-2.64188 2.4828237,-3.851207 0.6991202,-0.955702 1.4430424,-1.870962 2.3332524,-2.653773 1.620391,-1.241782 3.467737,-2.126467 5.442952,-2.591838 1.45175,-0.266496 2.927373,-0.345488 4.399874,-0.386748 1.090678,-0.03234 2.182886,0.01339 3.273487,-0.01437 1.157533,-0.02946 2.317425,-0.123348 3.472857,-0.194997 3.008367,-0.224915 6.003755,-0.575396 8.995879,-0.954449 2.585777,-0.352085 5.155526,-0.844482 7.661832,-1.574974 1.68719,-0.518754 3.275407,-1.27344 4.805586,-2.143186 -0.49237,0.266257 -0.95383,0.600025 -1.477108,0.798771 -0.249633,0.09481 0.429894,-0.316989 0.640583,-0.481052 0.226478,-0.176357 0.450028,-0.356528 0.670731,-0.540061 0.824509,-0.68565 1.609729,-1.416083 2.401205,-2.139044 1.209907,-1.160699 2.31171,-2.456999 3.155318,-3.911833 0.137571,-0.237247 0.255661,-0.485268 0.383491,-0.727902 0.400124,-0.781056 0.772672,-1.585429 0.927168,-2.455502 0.07778,-0.438035 0.08361,-0.708539 0.112837,-1.150458 -0.0098,-0.993866 -0.189965,-1.988706 -0.689919,-2.860875 C 55.37782,13.70219 55.246043,13.538855 55.128295,13.366719 54.650841,12.734106 54.070406,12.20367 53.474216,11.68729 52.999129,11.275803 52.485804,10.825484 51.96318,10.474194 51.675604,10.280895 51.368393,10.118547 51.070999,9.9407228 48.936279,8.8633717 46.591871,8.3006889 44.256376,7.8535251 42.435451,7.5151087 40.588754,7.4575081 38.744313,7.5551233 36.813295,7.740033 35.012196,8.4818928 33.231679,9.2030524 c -0.31551,0.1556721 -1.191336,0.7197048 -0.946532,0.4670163 0.284032,-0.2931789 0.676538,-0.7020982 1.070407,-0.59488 0.367159,0.099948 -0.642312,0.4086261 -0.954293,0.6264883 -0.949354,0.662953 -1.812296,1.42226 -2.676732,2.189498 -1.099954,1.043677 -2.125704,2.182109 -2.992881,3.428635 -0.39701,0.570684 -0.734136,1.135101 -1.098075,1.72568 -0.863928,1.520395 -1.493515,3.154224 -2.193954,4.751655 -0.588098,1.303143 -1.320815,2.533233 -2.094456,3.732984 -0.798441,1.284272 -1.911334,2.282568 -3.115225,3.173816 -1.331389,0.971537 -2.779245,1.754968 -4.220564,2.55198 -0.606987,0.335649 -1.274615,0.579032 -1.911704,0.850634 -1.014425,0.429455 -2.1033335,0.55987 -3.1920483,0.628284 -0.3549133,0.04074 -0.4786284,0.0285 -0.800465,0.157345 -0.093317,0.03736 -0.3535857,0.191379 -0.2658806,0.142271 3.4891669,-1.953645 2.2696559,-1.649556 1.8157874,-0.800311 -0.1904484,0.436836 -0.1722666,0.912081 -0.1702181,1.377635 0.00345,0.784685 -0.020371,0.356363 0.061662,1.158676 0.2203926,1.43844 0.5672208,2.853254 1.0813898,4.214285 0.570226,1.467651 1.258499,2.885402 1.936611,4.305772 0.481279,1.044829 1.00192,2.07188 1.476343,3.119762 0.31991,0.718025 0.648798,1.436989 1.020527,2.129921 0.348266,0.808341 0.759447,1.586913 1.128384,2.385369 0.3505,0.792744 0.888101,1.473149 1.38946,2.17229 0.614257,0.759134 1.149771,1.580528 1.819976,2.291923 0.871885,0.655147 1.819284,1.2088 2.80479,1.673761 0.873241,0.3123 1.723181,0.680526 2.578645,1.03567 0.832809,0.282764 1.704809,0.424765 2.576901,0.517914 0.88923,0.179914 1.786671,0.309605 2.683304,0.445491 0.933823,0.136195 1.878193,0.157388 2.81998,0.178231 1.158147,-0.03912 2.324387,-0.06905 3.466044,-0.278621 1.109205,-0.17235 2.201652,-0.502342 3.220337,-0.971371 0.197292,-0.108759 0.786276,-0.440125 0.591876,-0.326277 -0.488127,0.285867 -0.969899,0.584138 -1.473176,0.842401 -0.241755,0.12406 0.461745,-0.286848 0.686931,-0.438928 0.683338,-0.461497 1.318624,-0.973589 1.943483,-1.50989 0.969629,-0.931861 1.761714,-2.041673 2.411642,-3.215148 0.436754,-0.84861 0.927208,-1.67136 1.329177,-2.537715 0.211122,-0.455025 0.402013,-0.919174 0.605878,-1.377496 0.521988,-1.318348 1.186901,-2.571849 1.769859,-3.863215 0.66595,-1.413413 1.263141,-2.855682 1.860033,-4.298795 0.616831,-1.522936 0.980009,-3.136586 1.276776,-4.748386 0.239167,-1.528264 0.470599,-3.062339 0.620409,-4.602462 4.77e-4,-0.229858 0.01594,-0.460175 0.0014,-0.689576 -0.01481,-0.234158 -0.06414,-0.464918 -0.08921,-0.698201 -0.309537,-2.880862 0.171504,1.320482 -0.140986,-1.532958 -0.05329,-0.486641 -0.142927,-1.127447 -0.208285,-1.611651 -0.20185,-1.554812 -0.508715,-3.094531 -0.843298,-4.625785 -0.282217,-1.318917 -0.488524,-2.652849 -0.756764,-3.974231 -0.07283,-0.541901 -0.227473,-1.066606 -0.335638,-1.60141 -0.08155,-0.403234 -0.08901,-0.589586 -0.21816,-0.98207 -0.04996,-0.151827 -0.119702,-0.296412 -0.179553,-0.444618 C 47.905715,14.77696 47.240212,13.903631 46.539001,13.066537 45.510823,11.962519 44.224452,11.148145 42.997844,10.285414 41.617005,9.3831227 40.136463,8.6393895 38.669037,7.8883561 37.804097,7.4508506 36.939265,6.9945358 36.028252,6.6574881 35.593171,6.4965209 35.222351,6.3973226 34.777757,6.2681394 33.420264,5.9320213 32.046761,5.6898594 30.660856,5.5081007 29.155185,5.3250987 27.637242,5.3003509 26.122501,5.2864913 c -0.79048,0.031499 -1.587474,0.03611 -2.360052,0.2270926 -0.330527,0.081707 -0.653187,0.1924776 -0.98019,0.2873107 -0.983598,0.356414 -1.889618,0.8731523 -2.808512,1.3655406 -1.682539,0.8224016 1.80682,-1.0922071 1.351376,-0.8254054 -4.771431,2.7951313 -2.376885,1.3205236 -0.790902,0.4598426 0.143621,-0.07794 -0.272197,0.1808728 -0.408171,0.2714958 -0.141148,0.094071 -0.282131,0.1883912 -0.423196,0.2825869 -0.812806,0.5485689 -1.611551,1.1247237 -2.37956,1.7353874 -0.677068,0.5464727 -1.297226,1.1598795 -1.926699,1.7596965 -0.613955,0.478331 -1.062013,1.086536 -1.48104,1.730749 -0.414134,0.721233 -0.728532,1.498023 -1.066063,2.257864 -0.442232,1.065871 -0.878074,2.134331 -1.332003,3.195306 -0.477919,1.053117 -0.760752,2.158584 -0.942716,3.295322 -0.04164,0.967611 0.02012,1.931355 0.216717,2.879548 0.0509,0.184312 0.09043,0.372151 0.152707,0.552937 0.06324,0.183571 0.149192,0.358515 0.223131,0.538044 0.38246,0.928629 0.8019,1.830484 1.274243,2.716964 0.887426,1.685301 1.819978,3.345419 2.703186,5.033115 0.725338,1.434647 1.445506,2.871325 2.180596,4.301016 0.491536,0.892927 1.062117,1.744967 1.681093,2.554128 0.235589,0.278563 0.410153,0.601815 0.62,0.897337 0.172119,0.24239 0.385479,0.451847 0.560203,0.693602 0.381564,0.49436 0.822275,0.929182 1.353616,1.260015 0.645295,0.343067 1.366491,0.416788 2.082995,0.462523 0.852432,-0.0112 1.680522,-0.246013 2.514768,-0.403303 0.919076,-0.237651 1.794837,-0.60682 2.648446,-1.016768 0.59089,-0.306966 1.241183,-0.449449 1.87452,-0.633035 0.308941,-0.08955 0.612406,-0.197254 0.921024,-0.287913 0.946872,-0.255811 1.927004,-0.313407 2.902219,-0.346841 1.200828,-0.01598 2.375024,0.176799 3.542915,0.43512 1.580133,0.3147 3.098509,0.878808 4.596141,1.462388 0.757051,0.24428 1.477284,0.581699 2.207935,0.891713 0.229582,0.09741 0.465571,0.179712 0.692771,0.282555 0.390933,0.176956 0.76683,0.385411 1.150933,0.576739 0.904369,0.407504 1.608579,1.064958 2.246532,1.806284 0.692026,0.807709 1.289038,1.70695 1.745895,2.667734 0.482881,0.956973 0.810791,1.983869 1.069298,3.021469 0.247098,0.940187 0.335148,1.908921 0.567664,2.851567 0.147735,0.696502 0.298623,1.390419 0.517641,2.0679 0.264677,0.583681 0.643039,1.085668 1.059534,1.565998 0.283263,0.316328 0.557074,0.651386 0.87667,0.932906 0.06941,0.06114 0.490897,0.366982 0.553779,0.413025 0.727821,0.471739 1.567944,0.508558 2.406404,0.520721 1.22745,-0.09105 2.454119,-0.222484 3.655301,-0.494734 0.377289,-0.123029 0.843564,-0.266514 1.210207,-0.420291 0.87786,-0.368189 3.521391,-1.934087 -0.289814,0.224045 0.489713,-0.374861 0.807169,-0.594181 0.641917,-1.233466 -0.10861,-0.396067 -0.390109,-0.814984 -0.645146,-1.136182 -0.194129,-0.314778 -0.52675,-0.429883 -0.839806,-0.588649 -0.213121,-0.108084 -0.423025,-0.222401 -0.63498,-0.332755 -0.686997,-0.298355 -1.323125,-0.700607 -1.860145,-1.222593 -0.334488,-0.276752 -0.650591,-0.571298 -1.008776,-0.817171 0,0 2.223035,-1.409367 2.223035,-1.409367 l 0,0 c 0.349239,0.272718 0.684957,0.559669 1.015192,0.855084 0.523563,0.502769 1.151478,0.863097 1.811034,1.160966 0.55672,0.27377 1.188965,0.487105 1.57799,0.995715 0.278313,0.372572 0.557956,0.779384 0.701359,1.222897 0.211292,0.737031 0.02528,1.087832 -0.574693,1.569601 -1.725426,1.0135 -3.379708,2.160569 -5.338717,2.66064 -1.231018,0.259178 -2.486666,0.37715 -3.739294,0.481451 -0.884127,-0.0266 -1.759996,-0.133044 -2.515931,-0.636377 -0.554198,-0.39809 -1.050084,-0.860104 -1.484218,-1.388363 -0.42085,-0.518581 -0.819793,-1.048388 -1.101722,-1.65913 -0.219882,-0.687499 -0.362238,-1.391352 -0.507735,-2.098385 -0.205079,-0.952515 -0.281704,-1.92465 -0.525688,-2.869952 -0.248324,-1.022302 -0.576441,-2.03315 -1.057731,-2.971227 -0.429777,-0.949635 -1.016262,-1.824415 -1.710303,-2.602063 -0.634336,-0.695309 -1.313539,-1.321884 -2.16654,-1.744974 -0.08923,-0.04759 -1.035036,-0.552979 -1.10226,-0.584831 -0.936421,-0.443683 -1.911513,-0.806894 -2.876238,-1.182475 -1.496464,-0.572738 -3.010202,-1.119857 -4.589343,-1.416919 -1.180676,-0.221756 -2.369783,-0.364329 -3.573814,-0.337475 -0.966709,0.04726 -1.937517,0.122865 -2.869851,0.402228 -0.934169,0.281448 -1.889245,0.5158 -2.768608,0.949328 -0.861841,0.398663 -1.743922,0.75916 -2.676265,0.958271 -0.859329,0.175412 -1.717452,0.429628 -2.603023,0.380605 -0.74737,-0.0701 -1.491658,-0.185591 -2.151005,-0.570397 C 18.787346,43.810299 18.318286,43.361912 17.91436,42.837599 17.73909,42.590047 17.52965,42.367738 17.358718,42.11776 17.159201,41.825981 16.995965,41.50665 16.771459,41.230697 16.162918,40.396049 15.63028,39.504113 15.131984,38.599934 14.427315,37.154242 13.783333,35.679824 13.038385,34.254238 12.157674,32.567015 11.240958,30.900704 10.304942,29.243593 9.6208252,28.020375 8.9583757,26.758823 8.5378232,25.418612 8.4483855,25.025475 8.3778251,24.763594 8.3297666,24.363725 8.2541126,23.734248 8.2678092,23.091409 8.2690104,22.45929 c 0.1785904,-1.16199 0.4821682,-2.289301 0.956134,-3.368848 0.4269242,-1.059626 0.8765376,-2.108271 1.2829696,-3.175956 0.318293,-0.76904 0.646007,-1.537676 1.014538,-2.2825 0.423357,-0.661082 0.835959,-1.323374 1.484313,-1.796205 1.050536,-1.039689 -0.41324,0.394943 0.67472,-0.625155 0.410369,-0.384773 0.773163,-0.823189 1.23414,-1.152888 0.494377,-0.405074 1.020881,-0.7589348 1.531896,-1.1413155 0.14396,-0.1077227 0.275876,-0.2311238 0.421427,-0.3366887 0.142493,-0.1033477 0.294497,-0.192903 0.441746,-0.2893545 0.275439,-0.1819305 0.534849,-0.3884728 0.817866,-0.5583735 0.864059,-0.5187107 1.743088,-1.0121084 2.610586,-1.5250469 0.605604,-0.3580844 -2.440545,1.4009851 -1.824888,1.0604756 3.449729,-1.9079861 1.58942,-1.0092657 3.057376,-1.7074519 0.927461,-0.4888744 1.841839,-1.0107112 2.847543,-1.3271059 0.286921,-0.079846 0.688442,-0.1970367 0.979302,-0.255502 0.774987,-0.1557782 1.56744,-0.1581028 2.35459,-0.161312 1.518646,0.035365 3.040925,0.074051 4.551068,0.2489458 1.398444,0.1950123 2.786369,0.4305851 4.155677,0.7805951 1.355254,0.4143211 2.646195,0.9953082 3.886773,1.6806513 1.460585,0.7749275 2.945558,1.5210345 4.322812,2.4381817 1.262306,0.8656206 2.581364,1.6862304 3.650327,2.7931654 0.711893,0.864364 1.417936,1.738825 1.926986,2.742672 0.06303,0.157964 0.134732,0.31274 0.1891,0.473892 0.28167,0.834884 0.327096,1.754058 0.547888,2.606271 0.259082,1.327568 0.385269,2.680544 0.70038,3.998503 0.342998,1.538433 0.621071,3.091212 0.836018,4.652371 0.07501,0.537813 0.163612,1.073834 0.228071,1.613013 0.129542,1.083566 0.01284,0.438799 0.148596,1.516444 0.03063,0.243124 0.09139,0.482519 0.110044,0.726853 0.01816,0.237806 4.6e-5,0.476996 6.9e-5,0.715494 -0.148594,1.55174 -0.401491,3.094535 -0.63768,4.634866 -0.300469,1.621614 -0.634046,3.259883 -1.251014,4.793901 -0.599908,1.435764 -1.159564,2.889515 -1.832522,4.293888 -0.579055,1.295115 -1.22702,2.558022 -1.776555,3.86576 -0.20575,0.458049 -0.390833,0.9252 -0.596766,1.383167 -0.390239,0.86784 -0.877122,1.690958 -1.306959,2.538917 -0.639676,1.203704 -1.432635,2.344332 -2.398978,3.309285 -1.840522,1.571756 -3.8451,2.89798 -6.043821,3.940846 -1.04886,0.440535 -2.141018,0.774858 -3.271205,0.929552 -1.160409,0.165345 -2.331773,0.226451 -3.503233,0.248642 -0.956575,-0.01577 -1.916888,-0.0368 -2.863433,-0.18948 C 27.034241,60.413027 26.144505,60.271138 25.257518,60.110156 24.363576,60.01321 23.46907,59.847764 22.621788,59.540457 21.77323,59.173305 20.925028,58.807236 20.060694,58.47758 19.06275,57.981326 18.101838,57.399342 17.219754,56.717338 16.53702,56.001208 15.966632,55.18796 15.3489,54.415689 14.834252,53.704929 14.295097,53.007625 13.939989,52.19763 13.571726,51.404007 13.160074,50.632044 12.800271,49.834326 12.434176,49.13066 12.076857,48.417758 11.793697,47.676441 11.332289,46.621375 10.869937,45.566827 10.389717,44.520493 10.070116,43.81254 9.7626484,43.096995 9.4317313,42.394348 9.0895349,41.667751 8.7171636,40.954304 8.4677027,40.187154 7.9334082,38.818389 7.5511081,37.39767 7.3000338,35.949592 c -0.1301827,-0.924815 -0.05965,-0.28318 -0.1098246,-1.156883 -0.027453,-0.478053 -0.1004657,-0.982616 0.057557,-1.445442 0.3567285,-1.19647 1.2101162,-1.116629 2.657794,-1.947033 0.3121224,-0.179037 0.7289144,-0.142593 1.0677574,-0.18981 1.06583,-0.08208 2.124027,-0.237107 3.111306,-0.672822 0.227506,-0.09573 0.956266,-0.400193 1.169354,-0.499043 0.229107,-0.106282 0.887616,-0.478044 0.679897,-0.334384 -0.445637,0.308205 -0.924174,0.566465 -1.397297,0.830543 -0.488309,0.272554 1.900924,-1.147106 1.400707,-0.923364 1.198948,-0.850293 2.298359,-1.821433 3.099745,-3.069127 0.792062,-1.190406 1.539097,-2.41487 2.144597,-3.712323 0.740532,-1.606147 1.377901,-3.261938 2.242507,-4.809544 0.194219,-0.308638 0.922047,-1.47146 1.116065,-1.753675 0.870236,-1.265826 1.908351,-2.415215 3.005036,-3.486723 0.649203,-0.587751 1.075536,-0.9918 1.757039,-1.538155 1.771181,-1.4199392 3.770829,-2.5586021 5.818491,-3.5249927 1.810053,-0.7250517 3.645482,-1.4617536 5.609484,-1.6175106 1.835831,-0.059036 3.679824,-0.00388 5.481263,0.392048 2.348043,0.4927938 4.697133,1.1139473 6.870411,2.1471133 0.307337,0.1817019 0.624444,0.3478098 0.92201,0.5451057 0.523785,0.3472855 1.060226,0.8100484 1.543236,1.2112213 0.62675,0.520559 1.258447,1.038559 1.755843,1.691538 0.129373,0.182374 0.275194,0.354132 0.388119,0.547123 0.523285,0.89431 0.711657,1.949743 0.754732,2.969447 -0.03534,0.603714 -0.06686,1.212036 -0.227676,1.799196 -0.186484,0.680863 -0.518445,1.313601 -0.839677,1.937117 -0.132949,0.2517 -0.256239,0.508744 -0.398846,0.755101 -0.857137,1.480729 -1.9679,2.80681 -3.190675,3.996718 -1.987619,1.830456 -3.872251,3.660951 -6.371466,4.8268 -1.509868,0.83551 -3.083326,1.544889 -4.745924,2.023132 -2.495508,0.68314 -5.043482,1.144021 -7.607097,1.488047 -3.017023,0.34148 -6.032435,0.695677 -9.055274,0.983671 -2.278104,0.168613 -4.557114,0.217181 -6.840236,0.26963 -1.488195,0.07309 -2.982561,0.160417 -4.441785,0.483177 -0.570702,0.153617 -1.126434,0.32684 -1.677986,0.540962 -0.18819,0.07306 -0.72565,0.346021 -0.559962,0.230694 0.372213,-0.259077 2.601711,-1.575493 1.176967,-0.682433 -0.326533,0.272512 -0.544423,0.439434 -0.840258,0.74525 -0.565507,0.584586 -1.048558,1.253073 -1.559748,1.882956 -0.948291,1.188408 -1.8167548,2.433952 -2.5021627,3.795014 -0.5617126,1.197858 -0.8919349,2.267165 -0.71912,3.605287 0.095983,0.475217 0.1043981,0.587569 0.2506022,1.042263 0.2326256,0.723463 0.6039361,1.38995 0.8415885,2.111422 0.1581361,0.460937 0.1958802,0.633705 0.4290572,1.063612 0.330481,0.609306 0.8208688,1.086695 1.2704458,1.604723 0.495832,0.596743 1.010927,1.179957 1.690969,1.575041 0.873416,0.572116 1.870583,0.890819 2.869671,1.173028 1.374063,0.331306 2.759256,0.620567 4.17181,0.726906 1.429017,0.07088 2.859938,0.160173 4.291223,0.09627 1.109884,-0.0801 2.213807,-0.260066 3.296215,-0.518 0.697121,-0.188156 1.420666,-0.362905 2.084801,-0.652289 0.149514,-0.06515 0.577979,-0.301483 0.438698,-0.216635 -0.585114,0.356442 -1.18496,0.688117 -1.77744,1.032176 0.859153,-0.512367 1.609534,-1.118433 2.031638,-2.053656 0.519261,-1.278888 1.012812,-2.572657 1.686345,-3.781383 0.973487,-1.764219 1.823906,-3.596349 2.888714,-5.309579 1.17915,-1.80464 2.467188,-3.545262 3.952923,-5.111614 1.304942,-1.258582 2.680851,-2.445887 4.159242,-3.498065 0.232227,-0.155668 1.306653,-0.879769 1.541126,-1.02119 0.950864,-0.573511 1.911305,-1.131017 2.870365,-1.690713 0.512294,-0.298968 0.979898,-0.563357 1.525373,-0.797124 0.238147,-0.10206 0.485494,-0.181151 0.728241,-0.271726 1.623783,-0.440425 3.302142,-0.649095 4.987013,-0.580297 1.242229,0.06193 2.570475,0.105301 3.626583,0.846472 0.229585,0.209865 0.485835,0.449108 0.625488,0.734978 0.159524,0.326547 0.13235,0.709757 0.207313,1.05604 0.07876,0.850915 -0.03969,1.697551 -0.100177,2.546849 -0.206663,1.370976 -0.479799,2.733863 -0.933386,4.047266 -0.540407,1.582086 -1.127885,3.145477 -1.744356,4.69955 -0.480579,1.189886 -0.906412,2.405967 -1.556697,3.517982 -0.255444,0.400683 -0.497759,0.840847 -0.797822,1.210681 -0.302628,0.372995 -0.692305,0.668552 -1.061019,0.970521 -0.995187,0.59221 -1.931258,1.315504 -3.012161,1.731144 -0.70363,0.270568 -1.452333,0.342531 -2.19185,0.454348 -0.930174,0.122845 -1.865415,0.15171 -2.794769,0.279538 -1.028388,0.188496 -2.036526,0.466858 -3.029648,0.793085 -1.158548,0.347813 -2.337104,0.597565 -3.535073,0.767638 -0.748801,0.08429 -1.515178,0.07542 -2.199759,-0.2819 -0.66062,-0.395508 -1.151232,-0.926322 -1.525975,-1.601018 -0.184795,-0.292775 -0.386162,-0.575688 -0.554859,-0.878025 -0.328589,-0.588893 -0.562097,-1.230921 -0.847983,-1.840185 -0.439279,-0.962107 0.01604,0.06125 -0.36002,-0.860414 -0.180626,-0.442691 -0.399641,-0.867351 -0.591525,-1.304484 -0.06244,-0.142244 -0.114235,-0.288925 -0.171352,-0.433387 -0.428519,-0.966662 -0.869671,-1.927426 -1.174656,-2.942936 -0.22992,-0.88717 -0.301595,-1.791556 -0.152283,-2.700575 0.08029,-0.598838 0.0331,-0.297135 0.142466,-0.904968 0.08795,-0.652421 0.114091,-1.317433 0.376112,-1.934392 0.143646,-0.350568 0.229144,-0.599545 0.429052,-0.924578 0.425393,-0.691651 1.052622,-1.256229 1.640822,-1.802836 0.301633,-0.261452 0.887457,-0.772583 1.184284,-1.015169 1.087975,-0.889164 2.24819,-1.687068 3.323398,-2.593013 1.554098,-1.256692 3.14708,-2.534619 4.295354,-4.190993 0.632574,-1.107111 0.992735,-1.976205 0.741787,-3.269324 C 42.312779,22.2705 41.925878,21.38034 41.383503,20.384821 40.496385,18.889448 39.446273,17.496357 38.205815,16.273317 36.595697,14.647081 34.827569,13.169433 32.832329,12.033394 32.481127,11.81726 32.136463,11.590124 31.778723,11.384993 29.936625,10.328717 27.976765,9.4849689 25.997307,8.7258747 23.78348,7.9089917 21.528245,7.1386152 19.183826,6.8030904 17.617782,6.5988951 16.050946,6.3494949 14.465656,6.4086162 c -0.885724,0.037609 -1.783575,0.076674 -2.63041,0.3655071 -1.010888,0.3975883 -0.432547,0.1898727 1.578791,-0.9950286 0.121156,-0.071374 -0.246889,0.1356018 -0.362972,0.2149599 -0.430039,0.2939885 -0.797097,0.6698944 -1.160189,1.0396108 -0.125982,0.1575814 -0.263339,0.3067058 -0.377945,0.4727442 -0.57585,0.8342767 -0.816328,1.8134649 -0.880659,2.8132324 0.0026,1.158395 0.08405,2.327341 0.421289,3.442184 0.02564,0.07321 0.218509,0.635449 0.268677,0.739475 0.187789,0.38939 0.537634,0.630253 0.873605,0.881667 0.514019,0.34118 1.084747,0.584298 1.665408,0.788954 0.993381,0.364603 2.014637,0.645381 3.015474,0.987202 1.093724,0.412314 2.176527,0.885201 3.10375,1.610781 1.107436,0.823734 2.222674,1.639065 3.422351,2.326426 1.089065,0.631487 2.40286,1.232901 3.387777,1.997371 0.164744,0.12787 0.30699,0.282352 0.460486,0.423528 0.768026,0.866912 1.347868,1.690498 1.613468,2.842546 0.07468,0.455243 0.125487,0.669508 0.138104,1.133985 0.02457,0.904719 -0.108147,1.811356 -0.245349,2.702011 -0.301095,1.655272 -0.726104,3.282285 -1.43591,4.815348 -0.112325,0.265281 -0.215312,0.534712 -0.336975,0.795841 -0.258205,0.554195 -0.536231,1.020498 -0.8245,1.559861 -0.141959,0.265611 -0.265343,0.541398 -0.418236,0.800868 -0.333885,0.566624 -0.684311,1.009544 -1.075457,1.536967 -1.263608,1.573933 -2.654348,3.042581 -4.183429,4.363166 -1.63297,1.432643 -3.280506,2.848083 -5.057532,4.102474 -1.573629,1.105392 -0.677432,0.504765 -3.569629,2.186786 -0.214745,0.124889 -0.436284,0.237717 -0.65384,0.357642 -0.170332,0.09389 -0.677426,0.382474 -0.509816,0.283806 1.664023,-0.979559 2.588874,-1.470355 1.737158,-1.015923 0,0 -2.5024849,0.995202 -2.5024849,0.995202 z"
       inkscape:connector-curvature="0" />
    <path
       style="fill:#ff0000"
       id="path3798"
       d="m 36.338086,20.400902 c 1.252035,-0.797137 2.564564,-1.503987 3.850493,-2.240245 0.21944,-0.12564 0.880361,-0.49782 0.657523,-0.378309 -0.450851,0.241798 -0.894476,0.496834 -1.341715,0.745251 1.782575,-1.101147 3.557687,-2.214053 5.345496,-3.306724 0.904382,-0.566148 1.852013,-1.126054 2.496008,-1.995684 0.467139,-0.669902 0.631401,-1.467726 0.736194,-2.263016 0.109071,-0.616233 0.08548,-1.2415931 0.100473,-1.8638027 0.0047,-0.844156 0.189752,-1.6655602 0.365633,-2.4861461 0.168893,-0.8288291 0.519619,-1.5878435 0.962152,-2.3027147 0.9365,-1.3915309 2.61835,-2.0586516 4.007708,-2.8587391 0.749868,-0.2878134 1.563547,-0.3676541 2.360936,-0.4005679 0.687694,-0.0649865 1.364881,0.081606 2.049649,0.084764 0.412607,-0.00211 0.824636,-0.016122 1.23664,-0.037016 0,0 -2.10312,1.5393425 -2.10312,1.5393425 l 0,0 c -0.415374,0.00795 -0.830487,0.024076 -1.245961,0.026377 -0.682461,-0.022174 -1.360017,-0.1282731 -2.043689,-0.065364 -0.779193,0.053202 -1.573089,0.1240317 -2.280314,0.4854232 3.694782,-2.16661449 1.855591,-1.1784282 1.180762,-0.6384814 -0.290447,0.232393 -0.568634,0.5052841 -0.772079,0.8168235 -0.473732,0.6750769 -0.838964,1.4181874 -1.027157,2.2244045 -0.160116,0.8024272 -0.372932,1.5989274 -0.344735,2.4247837 -0.02117,0.6334503 0.02193,1.2712735 -0.104324,1.8986057 -0.123306,0.8145557 -0.24373,1.6607477 -0.688453,2.3711007 -0.06922,0.111992 -0.127213,0.231751 -0.207653,0.335975 -0.617805,0.800467 -1.58905,1.271545 -2.405093,1.825404 -1.791881,1.081403 -3.571087,2.182697 -5.340268,3.300923 -0.955843,0.567413 -1.910473,1.136873 -2.867529,1.702237 -0.319216,0.188572 -2.988199,1.720407 0.902839,-0.525024 0.04043,-0.02333 -0.728723,0.428335 -0.761336,0.448945 -0.07714,0.04875 -0.150119,0.103787 -0.225178,0.155681 0,0 -2.493902,0.975793 -2.493902,0.975793 z"
       inkscape:connector-curvature="0" />
    <path
       style="fill:#ff0000"
       id="path3800"
       d="M 5.3460662,3.3858269 C 4.5660994,3.8756636 3.9952489,4.5761423 3.4735596,5.3207186 2.5725049,6.7805427 2.4107485,8.5031384 2.323994,10.176699 c 3.1e-4,0.304069 -0.015138,0.608562 9.302e-4,0.912206 0.039314,0.742916 0.1355818,0.949895 0.2016015,1.683549 0.069768,0.775304 0.057698,1.558308 0.112539,2.335242 0.058576,0.479838 0.084058,0.871872 0.229183,1.336329 0.2565855,0.821174 0.7934249,1.552408 1.2854491,2.243468 0.3765099,0.563274 0.8023572,1.087039 1.2323072,1.609054 0.1329472,0.161415 0.2525789,0.334216 0.3946047,0.487704 0.2618434,0.282975 0.5575971,0.532728 0.8285307,0.807013 0.8086709,0.686741 1.5445955,1.374909 2.4683877,1.909289 0.6660225,0.310958 1.3133929,0.67096 2.0097099,0.912814 0.166826,0.05794 0.33788,0.10291 0.50682,0.154366 0.178901,0.06482 0.357802,0.129632 0.536702,0.194449 0.805871,0.242961 1.58888,0.55925 2.407023,0.761723 0.441905,0.109363 0.888756,0.197927 1.331114,0.305444 1.234067,0.350626 2.452841,0.744172 3.712511,0.995795 0.994881,0.188475 2.007445,0.220542 3.016791,0.238823 0.969044,0.02712 1.933009,-0.09956 2.895798,-0.188596 1.507051,-0.185009 2.974309,-0.581861 4.412028,-1.058752 1.343278,-0.479655 2.689144,-0.959111 4.008973,-1.500789 0.303536,-0.172953 0.64106,-0.272583 0.952379,-0.428278 0.128358,-0.06419 0.497625,-0.286181 0.372433,-0.216013 -0.614184,0.34424 -1.220004,0.703557 -1.839444,1.038249 -0.140704,0.07603 0.264136,-0.180868 0.402156,-0.261662 0.872697,-0.510863 1.752974,-1.008665 2.629461,-1.512998 0.438574,-0.194676 0.898942,-0.338621 1.367532,-0.440841 0.136692,-0.02982 0.27825,-0.03738 0.412891,-0.0754 0.582594,-0.164524 3.368118,-1.820723 -1.666591,0.977957 0.08536,-0.09231 0.382586,-0.254845 0.371354,-0.426664 -0.0023,-0.03493 -0.308534,-0.422873 -0.331569,-0.456443 -0.145042,-0.444392 -0.64802,-0.859978 -0.648587,-1.345611 -9.9e-5,-0.08486 0.0368,-0.165683 0.05519,-0.248525 0.06223,-0.06674 0.124458,-0.133482 0.186688,-0.200223 0,0 2.468763,-0.962612 2.468763,-0.962612 l 0,0 c -0.07564,0.02285 -0.151285,0.0457 -0.226928,0.06855 -0.04379,0.03694 -0.108039,0.05849 -0.131374,0.110812 -0.143364,0.321451 0.477773,0.92574 0.578524,1.231351 0.41209,0.560735 0.715175,0.64979 0.129579,1.270387 -0.83598,0.483009 -1.659112,0.988972 -2.50794,1.449028 -0.118501,0.06423 -0.631169,0.15472 -0.744186,0.182262 -0.455591,0.111027 -0.89988,0.265424 -1.316603,0.482174 0.591768,-0.346753 1.178405,-0.702413 1.775302,-1.04026 0.136786,-0.07742 -0.259444,0.177848 -0.394289,0.258601 -1.295859,0.776031 -2.496946,1.575686 -3.891123,2.116319 -1.302895,0.510253 -2.621334,0.982922 -3.946482,1.431865 -1.479665,0.483135 -2.98953,0.879875 -4.535434,1.084521 -0.970996,0.108712 -1.946719,0.200503 -2.925186,0.170693 C 19.501511,28.54722 18.487034,28.5007 17.498521,28.273426 16.247615,27.996943 15.031099,27.599494 13.796714,27.259739 13.353132,27.14906 12.904713,27.058343 12.461355,26.946769 11.635089,26.738834 10.836122,26.432931 10.020358,26.189619 9.6682575,26.071046 9.3115684,25.965493 8.9634907,25.835585 8.2637278,25.574423 7.603662,25.214753 6.9325033,24.890616 6.0162026,24.339304 5.2183771,23.641445 4.4310396,22.920751 4.1622961,22.635823 3.8689244,22.37426 3.6078261,22.082309 3.4695427,21.927686 3.3528039,21.75506 3.2236928,21.5927 2.7999715,21.059859 2.3728485,20.529569 1.9927617,19.963727 1.127207,18.766308 0.49272983,17.784071 0.42234555,16.255235 0.37670377,15.477548 0.4043639,14.694708 0.34510999,13.918555 0.28028846,13.069474 0.19919009,13.063831 0.15233979,12.196818 0.13570995,11.889066 0.1488133,11.580426 0.14705005,11.27223 0.22811243,9.5931883 0.3450298,7.8558529 1.1422823,6.3398067 1.6135493,5.6067211 2.1232355,4.8916584 2.8435815,4.3810283 c 0,0 2.5024847,-0.9952014 2.5024847,-0.9952014 z"
       inkscape:connector-curvature="0" />
  </g>
</svg>
