<?xml version="1.0" encoding="UTF-8" standalone="no"?>
<!-- Created with Inkscape (http://www.inkscape.org/) -->

<svg
   xmlns:dc="http://purl.org/dc/elements/1.1/"
   xmlns:cc="http://creativecommons.org/ns#"
   xmlns:rdf="http://www.w3.org/1999/02/22-rdf-syntax-ns#"
   xmlns:svg="http://www.w3.org/2000/svg"
   xmlns="http://www.w3.org/2000/svg"
   xmlns:sodipodi="http://sodipodi.sourceforge.net/DTD/sodipodi-0.dtd"
   xmlns:inkscape="http://www.inkscape.org/namespaces/inkscape"
   width="64px"
   height="64px"
   id="svg2985"
   version="1.1"
   inkscape:version="0.48.2 r9819"
   sodipodi:docname="crater1.png">
  <defs
     id="defs2987" />
  <sodipodi:namedview
     id="base"
     pagecolor="#ffffff"
     bordercolor="#666666"
     borderopacity="1.0"
     inkscape:pageopacity="0.0"
     inkscape:pageshadow="2"
     inkscape:zoom="5.5"
     inkscape:cx="-1"
     inkscape:cy="32"
     inkscape:current-layer="layer1"
     showgrid="true"
     inkscape:document-units="px"
     inkscape:grid-bbox="true"
     inkscape:window-width="1267"
     inkscape:window-height="831"
     inkscape:window-x="60"
     inkscape:window-y="60"
     inkscape:window-maximized="0">
    <inkscape:grid
       type="xygrid"
       id="grid2993" />
  </sodipodi:namedview>
  <metadata
     id="metadata2990">
    <rdf:RDF>
      <cc:Work
         rdf:about="">
        <dc:format>image/svg+xml</dc:format>
        <dc:type
           rdf:resource="http://purl.org/dc/dcmitype/StillImage" />
        <dc:title></dc:title>
      </cc:Work>
    </rdf:RDF>
  </metadata>
  <g
     inkscape:groupmode="layer"
     id="layer2"
     inkscape:label="bg">
    <rect
       style="fill:#b3b3b3"
       id="rect3780"
       width="65"
       height="65"
       x="0"
       y="-1" />
  </g>
  <g
     id="layer1"
     inkscape:label="Layer 1"
     inkscape:groupmode="layer">
    <path
       style="fill:none;stroke:#000000;stroke-width:1px;stroke-linecap:butt;stroke-linejoin:miter;stroke-opacity:1"
       d="M 0,49 15,39 20,19 25,9 45,14 55,39 65,44 40,54 25,54 25,9"
       id="path3788"
       inkscape:connector-curvature="0" />
    <path
       style="fill:#000000"
       d="m 25.509091,31.551384 c 0,-20.706304 0.01638,-21.8254833 0.318182,-21.7342903 0.175,0.052879 4.457491,1.1290013 9.516648,2.3913833 l 9.198466,2.29524 4.981873,12.461498 4.981871,12.461498 4.410571,2.2031 c 2.425814,1.211705 4.410571,2.24926 4.410571,2.305678 0,0.05642 -5.257093,2.20492 -11.682428,4.774451 l -11.682425,4.671876 -7.226665,0 -7.226664,0 0,-21.830434 z"
       id="path3790"
       inkscape:connector-curvature="0" />
  </g>
</svg>
