<?xml version="1.0" encoding="UTF-8" standalone="no"?>
<!-- Created with Inkscape (http://www.inkscape.org/) -->

<svg
   xmlns:dc="http://purl.org/dc/elements/1.1/"
   xmlns:cc="http://creativecommons.org/ns#"
   xmlns:rdf="http://www.w3.org/1999/02/22-rdf-syntax-ns#"
   xmlns:svg="http://www.w3.org/2000/svg"
   xmlns="http://www.w3.org/2000/svg"
   xmlns:sodipodi="http://sodipodi.sourceforge.net/DTD/sodipodi-0.dtd"
   xmlns:inkscape="http://www.inkscape.org/namespaces/inkscape"
   width="64px"
   height="64px"
   id="svg2985"
   version="1.1"
   inkscape:version="0.48.2 r9819"
   sodipodi:docname="solarpanel1.png">
  <defs
     id="defs2987" />
  <sodipodi:namedview
     id="base"
     pagecolor="#ffffff"
     bordercolor="#666666"
     borderopacity="1.0"
     inkscape:pageopacity="0.0"
     inkscape:pageshadow="2"
     inkscape:zoom="5.5"
     inkscape:cx="-1"
     inkscape:cy="32"
     inkscape:current-layer="layer1"
     showgrid="true"
     inkscape:document-units="px"
     inkscape:grid-bbox="true"
     inkscape:window-width="1267"
     inkscape:window-height="831"
     inkscape:window-x="60"
     inkscape:window-y="60"
     inkscape:window-maximized="0">
    <inkscape:grid
       type="xygrid"
       id="grid2993" />
  </sodipodi:namedview>
  <metadata
     id="metadata2990">
    <rdf:RDF>
      <cc:Work
         rdf:about="">
        <dc:format>image/svg+xml</dc:format>
        <dc:type
           rdf:resource="http://purl.org/dc/dcmitype/StillImage" />
        <dc:title></dc:title>
      </cc:Work>
    </rdf:RDF>
  </metadata>
  <g
     inkscape:groupmode="layer"
     id="layer2"
     inkscape:label="bg">
    <rect
       style="fill:#b3b3b3"
       id="rect3780"
       width="65"
       height="65"
       x="0"
       y="-1" />
  </g>
  <g
     id="layer1"
     inkscape:label="Layer 1"
     inkscape:groupmode="layer">
    <path
       sodipodi:type="arc"
       style="fill:#000000"
       id="path3932"
       sodipodi:cx="15"
       sodipodi:cy="9"
       sodipodi:rx="10"
       sodipodi:ry="5"
       d="M 25,9 A 10,5 0 1 1 5,9 10,5 0 1 1 25,9 z" />
    <path
       style="fill:none;stroke:#000000;stroke-width:1px;stroke-linecap:butt;stroke-linejoin:miter;stroke-opacity:1"
       d="M 5,9 5,54"
       id="path3934"
       inkscape:connector-curvature="0" />
    <path
       style="fill:none;stroke:#000000;stroke-width:1px;stroke-linecap:butt;stroke-linejoin:miter;stroke-opacity:1"
       d="m 25,9 0,45"
       id="path3936"
       inkscape:connector-curvature="0" />
    <path
       style="fill:none;stroke:#000000;stroke-width:1px;stroke-linecap:butt;stroke-linejoin:miter;stroke-opacity:1"
       d="m 5,54 5,5 10,0 5,-5"
       id="path3940"
       inkscape:connector-curvature="0" />
    <path
       style="fill:#ffffff"
       d="m 7.9156556,56.061198 -2.4065647,-2.411527 0,-21.443553 0,-21.443554 0.6818182,0.662231 c 1.9656945,1.909225 6.4537809,2.974087 10.6787459,2.533686 1.921364,-0.200279 4.199899,-0.791464 5.357364,-1.390012 0.278505,-0.144021 0.88545,-0.551212 1.348768,-0.90487 l 0.842395,-0.643015 0,21.319507 0,21.319507 -2.411529,2.406564 -2.411528,2.406565 -4.636452,0 -4.636452,0 -2.4065654,-2.411529 z"
       id="path3942"
       inkscape:connector-curvature="0" />
    <rect
       style="fill:#ffffff"
       id="rect3944"
       width="35"
       height="25"
       x="25"
       y="29" />
    <path
       style="fill:none;stroke:#000000;stroke-width:1px;stroke-linecap:butt;stroke-linejoin:miter;stroke-opacity:1"
       d="m 25,29 35,0 0,25 -35,0"
       id="path3946"
       inkscape:connector-curvature="0" />
    <path
       style="fill:none;stroke:#000000;stroke-width:1px;stroke-linecap:butt;stroke-linejoin:miter;stroke-opacity:1"
       d="M 60,29 55,24 25,24"
       id="path3948"
       inkscape:connector-curvature="0" />
    <path
       style="fill:#ffffff"
       d="m 25.509091,26.563636 0,-1.909091 14.685067,0 14.685066,0 1.902594,1.909091 1.902595,1.909091 -16.587662,0 -16.58766,0 0,-1.909091 z"
       id="path3950"
       inkscape:connector-curvature="0" />
  </g>
</svg>
